<?xml version="1.0" standalone="no"?>
<!DOCTYPE svg PUBLIC "-//W3C//DTD SVG 20010904//EN"
 "http://www.w3.org/TR/2001/REC-SVG-20010904/DTD/svg10.dtd">
<svg version="1.0" xmlns="http://www.w3.org/2000/svg"
 width="195.000000pt" height="56.000000pt" viewBox="0 0 195.000000 56.000000"
 preserveAspectRatio="xMidYMid meet">

<g transform="translate(0.000000,56.000000) scale(0.100000,-0.100000)"
fill="#000000" stroke="none">
<path d="M0 280 l0 -280 975 0 975 0 0 280 0 280 -975 0 -975 0 0 -280z m790
78 c0 -48 3 -59 12 -50 13 13 66 16 85 4 20 -13 33 -61 33 -123 l0 -59 -35 0
-34 0 -3 67 c-3 57 -6 68 -22 71 -27 5 -36 -15 -36 -80 0 -58 0 -58 -30 -58
l-30 0 0 145 0 145 30 0 30 0 0 -62z m-430 17 c0 -22 -4 -25 -40 -25 l-40 0 0
-110 0 -110 -35 0 -35 0 0 110 0 110 -35 0 c-31 0 -35 3 -35 25 l0 25 110 0
110 0 0 -25z m908 -14 c3 -29 1 -33 -15 -27 -46 19 -78 18 -104 -3 -35 -27
-43 -62 -25 -105 21 -51 96 -63 96 -15 0 14 -7 19 -30 19 -25 0 -30 4 -30 25
0 24 2 25 65 25 l65 0 0 -65 c0 -61 -2 -66 -26 -75 -47 -18 -128 -12 -165 13
-65 44 -75 134 -22 198 35 41 56 49 128 46 l60 -2 3 -34z m-773 -66 c16 -15
25 -36 25 -55 l0 -30 -60 0 c-61 0 -76 -11 -41 -30 13 -7 28 -7 46 0 35 13 35
13 35 -14 0 -13 -7 -27 -16 -30 -20 -8 -88 -8 -109 0 -22 9 -45 57 -45 94 0
77 110 121 165 65z m203 -7 c3 -26 2 -27 -32 -21 -42 7 -66 -9 -66 -42 0 -33
24 -49 66 -42 34 6 35 5 32 -21 -3 -25 -7 -27 -50 -30 -26 -2 -57 2 -69 8 -27
15 -50 70 -41 101 17 59 48 80 112 76 41 -2 45 -5 48 -29z m682 -15 c0 -72 9
-95 34 -91 19 3 21 10 24 71 l3 67 34 0 35 0 0 -95 0 -95 -35 0 c-21 0 -35 5
-35 12 0 9 -3 9 -12 0 -17 -17 -68 -15 -90 5 -14 13 -18 31 -18 95 l0 78 30 0
c29 0 30 -1 30 -47z m345 24 c10 -14 15 -46 15 -94 l0 -73 -35 0 -35 0 0 71
c0 67 -1 70 -22 67 -21 -3 -23 -9 -26 -70 l-3 -68 -34 0 -35 0 0 94 0 94 80 0
c70 0 82 -2 95 -21z"/>
<path d="M413 273 c-24 -9 -13 -23 18 -23 27 0 30 2 19 15 -13 16 -17 17 -37
8z"/>
</g>
</svg>
